PathFileType	4	(X/Y/Z)	Patient4_TMGait_0pt6_02_left_40.trc.trc
DataRate	CameraRate	NumFrames	NumMarkers	Units	OrigDataRate	OrigDataStartFrame	OrigNumFrames
78.212290502793	78.212290502793	5	33	mm	78.212290502793	53	       141
Frame#	Time	Sacral			L.Shoulder			Chest			R.Shoulder			Neck			R.ASIS			L.ASIS			R.Thigh.Superior			R.Thigh.Lateral			R.Thigh.Inferior			R.Patella			L.Thigh.Superior			L.Thigh.Lateral			L.Thigh.Inferior			L.Patella			L.Shank.Superior			L.Shank.Lateral			L.Shank.Inferior			R.Shank.Superior			R.Shank.Lateral			R.Shank.Inferior			R.Heel			R.Midfoot.Superior			R.Midfoot.Lateral			R.Toe			L.Heel			L.Midfoot.Lateral			L.Midfoot.Superior			L.Toe			L.Elbow			L.Wrist			R.Elbow			R.Wrist			
		X1	Y1	Z1	X2	Y2	Z2	X3	Y3	Z3	X4	Y4	Z4	X5	Y5	Z5	X6	Y6	Z6	X7	Y7	Z7	X8	Y8	Z8	X9	Y9	Z9	X10	Y10	Z10	X11	Y11	Z11	X12	Y12	Z12	X13	Y13	Z13	X14	Y14	Z14	X15	Y15	Z15	X16	Y16	Z16	X17	Y17	Z17	X18	Y18	Z18	X19	Y19	Z19	X20	Y20	Z20	X21	Y21	Z21	X22	Y22	Z22	X23	Y23	Z23	X24	Y24	Z24	X25	Y25	Z25	X26	Y26	Z26	X27	Y27	Z27	X28	Y28	Z28	X29	Y29	Z29	X30	Y30	Z30	X31	Y31	Z31	X32	Y32	Z32	X33	Y33	Z33	

53	49.464857142857	833.595223327057	1017.879134586786	475.922117718544	1033.479837272258	1438.804596998712	291.618623496495	1135.866408424583	1359.237769399336	447.823489223650	1062.510912573124	1438.973739137933	623.512214895725	1043.248538636976	1497.494189090547	442.816905500142	1061.014211599159	948.077528506625	587.795339440250	1043.016985973259	963.720701826299	313.646467396615	1144.706507563838	783.134751905523	560.872837371338	1109.290872843642	666.243123577604	643.630732835077	1199.808109124898	625.885096098063	564.412830632962	1220.540866359726	511.349275795164	591.420395277335	1085.611599100528	751.645261668461	343.767302132918	990.359137664285	639.243035177791	290.770405998099	1071.755917847408	558.417661140865	353.352323809751	1069.250716694367	488.445884306075	365.703747552104	1039.407174208618	418.243136012129	359.095367100369	945.690327182215	307.346388840087	309.441508440858	989.403002046080	195.269152547039	383.897104068096	1139.676250730028	439.822991154793	603.879884786190	1015.216356491737	411.873113147177	663.854073579126	995.175890151268	300.777070843032	623.751924907682	794.712764942278	257.961740949516	595.441577547063	951.481749029440	176.756826355364	643.065257190440	841.831527237612	191.622380200605	671.284860079290	997.151818903256	55.292050421002	672.683037521159	851.763391656885	42.466165431071	423.228844321477	929.378548633275	38.075499089469	346.968772995403	1012.879849528664	97.078097905053	375.876636319261	1141.064683658223	39.413086666758	353.810228997775	986.042041290566	1095.734576144775	153.175399342909	1162.266259874129	902.498133903878	155.840402359065	1019.184289649068	1090.523032551786	740.232221922070	1103.235551233765	842.220028032082	724.710312260783	
54	49.477642857143	832.488692703644	1018.621183369179	475.062080353933	1034.544112826016	1439.208546902482	290.963066733869	1135.622141721070	1359.611602971396	447.976027771556	1061.184699790669	1439.568508315602	623.161243876482	1043.199694847719	1497.981707342968	442.184425099650	1059.726484085002	949.251951412724	587.823096642878	1042.470068882078	964.653500667088	313.472328969241	1145.929826362253	787.776648376093	560.482789653928	1113.538902738883	670.190573173047	643.444447554764	1204.704740212122	631.799862552653	564.026506699789	1228.491514047224	518.052064434889	590.972764155081	1082.299344931964	750.796527779413	344.117426965515	985.615674246769	639.629139362535	290.490960873571	1065.449075737796	557.768411109045	353.372833689106	1061.923361291373	488.101436943054	365.763746561388	1032.267958612682	418.312342843451	358.976676245633	938.414851719047	307.560304599168	309.212354124389	981.863041692944	195.431326628067	383.815593512435	1150.090859095192	444.103447139039	603.604617849710	1027.018429681897	411.531343651241	664.023100577633	1010.956556803518	299.734023647214	623.822304454330	811.898761731927	248.990984151609	596.562061423404	972.396966511819	174.564778138806	643.332322001115	862.217363891520	184.450651938909	671.866516851516	1023.169734664890	54.976125515599	671.801039858690	844.017240373408	42.699268333945	423.143280462602	921.675063053677	38.189690115285	346.903593860905	1005.225611691637	97.147337754898	375.755422202600	1133.341423500105	39.386789427934	353.732540399672	991.842482219273	1096.520265219730	150.839370980438	1177.089954343017	912.430317135636	153.764451170580	1007.601869235027	1093.404110776634	741.552182769619	1075.935049027920	839.491046139074	733.468041044718	
55	49.490428571429	831.454602305738	1019.291133228449	474.386407386451	1035.678105319439	1439.525808461823	290.464855699839	1135.430565809806	1359.899303785462	448.282484966657	1059.896402094060	1440.095741937278	622.939529779085	1043.173481969989	1498.376930870138	441.705633295736	1058.434527893603	950.249269172122	587.972703513729	1041.866871069798	965.591034740102	313.456001541010	1146.753096566796	791.998374327285	560.191822527511	1117.171854718788	673.784352382821	643.326327889505	1208.745470409582	637.145727520449	563.644237502210	1235.424604914561	524.434855422630	590.536733275697	1078.956096418660	749.863942432437	344.670482767289	980.773926213029	639.977927909036	290.330661058887	1058.969739926806	557.079756344141	353.540114097962	1054.430605883091	487.766378058838	365.932027579678	1025.001215645982	418.375654514088	358.951734700218	931.051217621540	307.750240656554	309.039356770859	974.261323819548	195.573324929239	383.783248559928	1159.870694857253	448.027585859581	603.439268892966	1038.687812308650	410.306666585121	664.570623273709	1027.078830740271	297.905006130105	624.245702778559	830.003851568771	238.440421486673	598.414812001708	994.294494610491	171.555883184734	644.015931708595	883.811180287908	176.057242907734	673.116233350047	1050.613554701349	54.220066391621	671.305734401954	836.270616465931	42.890788732237	423.077449687543	913.962807106444	38.283742953563	346.852538478510	997.553359936730	97.211680161444	375.662901614193	1125.614843741559	39.370795798417	353.672081118792	997.347066849197	1097.350868452155	148.818094551208	1191.424167616073	923.179939501420	152.025990612783	995.726609022782	1096.648985044910	742.888263465780	1049.075838704941	838.734864040568	741.514422357168	
56	49.503214285714	830.496339885013	1019.852906282491	473.887403965866	1036.850531768188	1439.717933172038	290.127828894500	1135.280917721233	1360.070090590205	448.738184216257	1058.639203740826	1440.525501113858	622.837054361047	1043.169239126543	1498.646304473033	441.381652809805	1057.162798691982	951.029833640457	588.245595537634	1041.174732659555	966.473073380760	313.599796014878	1147.164004594381	795.683092399958	559.962110788836	1120.149512758581	676.914768962924	643.274630603123	1211.893562568395	641.776622472622	563.269700832557	1241.274475996695	530.351099502085	590.133336365888	1075.636348534490	748.840299130783	345.380131734531	975.883386688336	640.271701337166	290.273383218328	1052.399332210896	556.343556968713	353.816368486031	1046.871355488383	487.428435568017	366.170563148689	1017.676886901519	418.408705603458	358.999091882119	923.647063381400	307.908416197760	308.907682329056	966.623769561430	195.681027602666	383.787490951325	1168.932709393916	451.526004440020	603.401880250193	1050.185927479835	408.224947665050	665.465491239831	1043.480194068228	295.386662387140	624.993137509374	849.104829709950	226.506228303103	600.842257192767	1017.051180482118	167.922118724144	645.073154908896	906.572700547651	166.725980412989	674.954686268846	1079.258903016078	53.328795009507	671.301705027635	828.526075269947	43.038167782381	423.027333296662	906.242590122552	38.352789029931	346.814151278059	989.864373693574	97.267407857464	375.594738712202	1117.884474565914	39.363513788671	353.628852531286	1002.582574359251	1098.164639373337	147.084615072568	1205.180568755648	934.653960937320	150.627141910633	983.674508327285	1100.231106953376	744.232567055631	1022.934916400407	839.720064170450	748.779232402022	
57	49.516000000000	829.614483037508	1020.278653095232	473.557195121408	1038.032431624936	1439.754783136926	289.955012415704	1135.162860883887	1360.100645181306	449.338378766593	1057.410400672953	1440.837169677194	622.842105681993	1043.186825868048	1498.763629162144	441.211150832096	1055.936748625122	951.562749802095	588.643955767108	1040.368480080703	967.232674825433	313.906298834263	1147.157058156529	798.721372322953	559.781255960080	1122.421892256718	679.480106232184	643.300593971353	1214.118758692260	645.560251136108	562.930894501202	1245.983476764907	535.665306789137	589.800848755504	1072.383883521180	747.727180290872	346.202093954030	970.996615391651	640.498456716485	290.300132878536	1045.825194538012	555.558080363234	354.161105491226	1039.347367527594	487.075467436305	366.440506552112	1010.365217523804	418.390826345589	359.095986288513	916.250489365044	308.031637433506	308.801620066543	958.976919112487	195.744257864791	383.813507209939	1177.196001455375	454.540023739999	603.513473020090	1061.466560008744	405.327624143692	666.667792153923	1060.086635952489	292.291310035688	626.017613306330	869.259515868241	213.399513501283	603.652851234376	1040.539616920237	163.879536662217	646.437611087142	930.443386479229	156.741237363840	677.257426379064	1108.877894340252	52.630375195824	671.832450296387	820.784989707333	43.143161262499	422.986975110988	898.515728105814	38.394205989660	346.785446884614	982.161027251682	97.311161796055	375.544364915610	1110.149587552705	39.362449900109	353.602745192201	1007.584479401077	1098.909722582782	145.613092848445	1218.274299828063	946.739513723731	149.573535772683	971.583133411494	1104.123349066566	745.580744417663	997.737114357458	842.181412753594	755.239119662382	
